<svg id="Layer_1" data-name="Layer 1" xmlns="http://www.w3.org/2000/svg" viewBox="0 0 100.36 63.02"><defs><style>.cls-1,.cls-2{fill:#fff;}.cls-1,.cls-3,.cls-4{stroke:#fff;stroke-miterlimit:10;}.cls-3{fill:#010101;}.cls-4{fill:none;}</style></defs><g id="shay_s_blog_white" data-name="shay&apos;s blog white"><path class="cls-1" d="M194.79,349a.44.44,0,0,1-.24-.4.46.46,0,0,1,.11-.29.43.43,0,0,1,.29-.16c.09,0,.57.05,1.43.16l2.9.24h.89a17.55,17.55,0,0,0,2.51-.18,7.25,7.25,0,0,0,2.93-1,1.84,1.84,0,0,0,1-1.52.43.43,0,0,0,0-.16,2.26,2.26,0,0,0-1.16-1.65,32.9,32.9,0,0,0-3.43-1.94,17.84,17.84,0,0,1-3.19-1.91,4.38,4.38,0,0,1-1.61-2.4,5.07,5.07,0,0,1-.17-1.23,5.48,5.48,0,0,1,.27-1.6,10.41,10.41,0,0,1,1.43-2.77,12.69,12.69,0,0,1,2.35-2.45,12.26,12.26,0,0,1,2.87-1.66,8.52,8.52,0,0,1,2.48-.62h.4a5.43,5.43,0,0,1,2,.38,3.75,3.75,0,0,1,1.77,1.52,3.26,3.26,0,0,1,.46,1.41,2.81,2.81,0,0,1,0,.64,2.32,2.32,0,0,1,0,.59,19.38,19.38,0,0,1-.78,2.91.36.36,0,0,1-.45.21.36.36,0,0,1-.33-.34v-.31a2.45,2.45,0,0,1,.08-.37,4.47,4.47,0,0,1,.18-.71c.09-.34.18-.7.27-1.07a4.14,4.14,0,0,0,.11-1,3,3,0,0,0-.32-1.39,2.9,2.9,0,0,0-1.91-1.41,5.11,5.11,0,0,0-1.11-.14,6.22,6.22,0,0,0-2,.38,9.67,9.67,0,0,0-3.07,1.75,13.63,13.63,0,0,0-2.39,2.64,7.17,7.17,0,0,0-1.24,2.79,5.56,5.56,0,0,0-.08.8,3.31,3.31,0,0,0,.24,1.25,3.69,3.69,0,0,0,1.28,1.61,15.72,15.72,0,0,0,1.87,1.16l2.4,1.25a18.11,18.11,0,0,1,2.42,1.5,3.18,3.18,0,0,1,1,1,2.56,2.56,0,0,1-.06,2.69,3.43,3.43,0,0,1-1.42,1.22,8.63,8.63,0,0,1-2.61.87,19,19,0,0,1-2.72.16c-.61,0-1.28,0-2-.06A13.23,13.23,0,0,1,194.79,349Z" transform="translate(-194.05 -298.98)"/><path class="cls-1" d="M220,338.45a.73.73,0,0,1,.49-.27.34.34,0,0,1,.33.24.58.58,0,0,1-.09.54c-.81,1.08-1.33,1.75-1.55,2A9.71,9.71,0,0,1,218,342a1.65,1.65,0,0,1-.84.43.92.92,0,0,1-.37,0,1.63,1.63,0,0,1-.57-.1,1.24,1.24,0,0,1-.7-.75,4.15,4.15,0,0,1-.19-1.17,3.34,3.34,0,0,1,.08-.7c.16-.51.34-1.11.54-1.79a4,4,0,0,0,.22-1.2,1.07,1.07,0,0,0-.06-.43c0-.21-.15-.32-.29-.32a1.83,1.83,0,0,0-.87.59,23.09,23.09,0,0,0-3.68,6.14l-.06.07a.14.14,0,0,1,0,.09l0,.11a.13.13,0,0,1-.07.1.18.18,0,0,1-.09.08c-.05,0-.08.06-.11.06h-.12a.15.15,0,0,1-.16,0,.44.44,0,0,1-.34-.38,1.29,1.29,0,0,1,.07-.58c.48-2.32,1.11-4.82,1.87-7.52s1.38-4.7,1.84-6a.51.51,0,0,1,.65-.28.44.44,0,0,1,.16.1.44.44,0,0,1,.13.34.33.33,0,0,1,0,.14c-.38,1.15-.61,1.9-.7,2.24q-.27.93-2.07,7.58a.43.43,0,0,1,0,.16h0a30.54,30.54,0,0,1,2.05-3,2.61,2.61,0,0,1,1.69-1h0a1.23,1.23,0,0,1,1.1.88,1.78,1.78,0,0,1,.11.75,7.84,7.84,0,0,1-.29,1.87,9.79,9.79,0,0,0-.41,2.21,2.41,2.41,0,0,0,0,.38q.08.48.54.3a2.91,2.91,0,0,0,.93-.58,5,5,0,0,0,.72-.74c.17-.21.41-.54.72-1A8.84,8.84,0,0,1,220,338.45Z" transform="translate(-194.05 -298.98)"/><path class="cls-1" d="M227.79,338.82a.42.42,0,0,1,.57-.13l.06.05a.4.4,0,0,1,.16.53.22.22,0,0,1-.07.09,13.23,13.23,0,0,1-2.07,2.29,3.06,3.06,0,0,1-1.7.72,1,1,0,0,1-.37-.05,1.5,1.5,0,0,1-1-1.36v-1.07l-1.8,1.66a2,2,0,0,1-1.32.61,1,1,0,0,1-.92-.8,2.76,2.76,0,0,1-.05-.51,4.29,4.29,0,0,1,.37-1.57,9.55,9.55,0,0,1,1.4-2.36,4.59,4.59,0,0,1,1.65-1.38,3.17,3.17,0,0,1,1.13-.27,1.2,1.2,0,0,1,1.21.94,1.58,1.58,0,0,1,.09.42V337a1.2,1.2,0,0,1,0,.38,1,1,0,0,1-.08.34l-.12.34c0,.1-.07.21-.1.31a6.92,6.92,0,0,0-.4,2.11v.21c0,.5.16.75.43.75a.61.61,0,0,0,.3-.08A8.14,8.14,0,0,0,227.79,338.82ZM224,338.1a.86.86,0,0,0,.27-.58,2.35,2.35,0,0,0,.06-.54.8.8,0,0,0-.06-.37.57.57,0,0,0-.11-.27.44.44,0,0,0-.37-.19,2.06,2.06,0,0,0-1.13.56,7.19,7.19,0,0,0-2.21,3.53,2.61,2.61,0,0,0-.11.61,1.29,1.29,0,0,0,.06.4,5.15,5.15,0,0,0,.95-.65c.26-.22.63-.58,1.12-1.06s1-1,1.53-1.44Z" transform="translate(-194.05 -298.98)"/><path class="cls-2" d="M235.56,338.37a.45.45,0,0,1,.19-.05.47.47,0,0,1,.33.13.43.43,0,0,1,0,.62.36.36,0,0,1-.19.13,16.71,16.71,0,0,0-2.72,1.49.92.92,0,0,0-.43.64c0,.11-.08.45-.19,1s-.19,1-.24,1.17-.15.59-.27,1.14a8.35,8.35,0,0,1-.34,1.21c-.1.26-.23.62-.39,1.07a4.21,4.21,0,0,1-.51,1.07c-.18.26-.38.53-.61.83a2.51,2.51,0,0,1-.75.7,3.12,3.12,0,0,1-.87.4,2.33,2.33,0,0,1-.7.11,1.46,1.46,0,0,1-1-.32,1.86,1.86,0,0,1-.62-1.49,4.77,4.77,0,0,1,.21-1.29c.6-2,2.24-4,4.9-6.05l.22-.2a.83.83,0,0,0,.13-.18.86.86,0,0,0,.11-.28,1.62,1.62,0,0,1,.09-.35c0-.1.07-.28.13-.56s.09-.52.13-.73h-.05c-.06.07-.22.34-.48.79a6.17,6.17,0,0,1-.55.88c-.1.13-.27.35-.49.66a3.65,3.65,0,0,1-.66.7,3.17,3.17,0,0,1-.7.44,1.15,1.15,0,0,1-.6.16,1,1,0,0,1-.75-.32,1.71,1.71,0,0,1-.46-1.28,5.23,5.23,0,0,1,0-.56,16.3,16.3,0,0,1,1.59-4.43.57.57,0,0,1,.59-.37.38.38,0,0,1,.36.39v0a14,14,0,0,1-.62,1.93,12.07,12.07,0,0,0-.89,3.17c0,.29.08.43.24.43a1.35,1.35,0,0,0,1-.69c.34-.47,1-1.51,1.94-3.13.4-.67.71-1.21.94-1.6a2.39,2.39,0,0,1,.13-.21l.16-.18c.08-.08.14-.11.2-.09a.71.71,0,0,0,.29,0,.4.4,0,0,1,.31.28,1.14,1.14,0,0,1,0,.58,3.7,3.7,0,0,1-.16.82c-.07.29-.17.67-.27,1.16s-.19,1-.25,1.45a1.59,1.59,0,0,0,.41-.21c.25-.14.56-.32.94-.52S235.27,338.51,235.56,338.37Zm-4,3.79V342l-.48.36a14.26,14.26,0,0,0-1.06,1,18.39,18.39,0,0,0-1.24,1.41,8.21,8.21,0,0,0-1,1.72,5.09,5.09,0,0,0-.46,1.87.71.71,0,0,0,.38.66.78.78,0,0,0,.39.08.87.87,0,0,0,.42-.1,2.47,2.47,0,0,0,.86-.6,4,4,0,0,0,.73-1.09c.21-.44.39-.84.53-1.2a8.88,8.88,0,0,0,.44-1.44c.14-.6.24-1,.29-1.28S231.45,342.71,231.56,342.16Z" transform="translate(-194.05 -298.98)"/><path class="cls-3" d="M238.44,330.36a.79.79,0,0,1-.41.5.35.35,0,0,1-.43-.12.61.61,0,0,1-.1-.54c.29-1.46.45-2.23.48-2.32a.45.45,0,0,1,.48-.29.43.43,0,0,1,.41.4v.45a5.62,5.62,0,0,1-.15,1A4.67,4.67,0,0,1,238.44,330.36Z" transform="translate(-194.05 -298.98)"/><path class="cls-1" d="M244.2,340.16v.1a1.79,1.79,0,0,1,.32,1.07,2.39,2.39,0,0,1-.29,1.15,2.67,2.67,0,0,1-2.18,1.31H242a1.24,1.24,0,0,1-1-.4,1.12,1.12,0,0,1-.3-.78,1.71,1.71,0,0,1,0-.32,2.74,2.74,0,0,1,.83-1.38l.81-.75a1.55,1.55,0,0,0-.24-.19,2.43,2.43,0,0,1-.92-1.41,3.41,3.41,0,0,1,0-.46,2.77,2.77,0,0,1,.32-1.22,3.41,3.41,0,0,1,1.27-1.34,2.11,2.11,0,0,1,1-.32,1.62,1.62,0,0,1,.54.11,1,1,0,0,1,.65.54,1.06,1.06,0,0,1,.08.76.39.39,0,0,1-.43.33.33.33,0,0,1-.31-.17,1,1,0,0,1-.12-.32.39.39,0,0,0-.18-.26.51.51,0,0,0-.44,0,2.09,2.09,0,0,0-1.27,1.26,2.16,2.16,0,0,0-.1.61,1.23,1.23,0,0,0,.43.94s.28.18.72.5a11.17,11.17,0,0,1,3.31-1.17h.11a.47.47,0,0,1,.34.15.48.48,0,0,1,0,.67.47.47,0,0,1-.29.14A18.11,18.11,0,0,0,244.2,340.16Zm-.86,1.63a1.22,1.22,0,0,0,.08-.43.92.92,0,0,0-.21-.61c-1,.67-1.52,1.25-1.54,1.73,0,.29.17.38.51.29a1.48,1.48,0,0,0,1.16-1Z" transform="translate(-194.05 -298.98)"/><path class="cls-1" d="M262.23,329.16a29.22,29.22,0,0,0-5.06,1.7c-1.41.65-2.15,1.13-2.2,1.45a.41.41,0,0,1-.41.41.42.42,0,0,1-.16,0c-.29-.05-.43-.2-.43-.45a.6.6,0,0,0,0-.19c.35-.69,1.47-1.44,3.37-2.25a28.5,28.5,0,0,1,5-1.67.5.5,0,0,0,.49-.27.36.36,0,0,1,.54-.08.34.34,0,0,0,.24.11h.11a22.71,22.71,0,0,1,3.58-.34,7.29,7.29,0,0,1,3.68.77,1.47,1.47,0,0,1,.92,1.87,1.09,1.09,0,0,1-.19.37,2.85,2.85,0,0,1-.92,1c-.53.45-1,.78-1.26,1a7.87,7.87,0,0,1-.83.58L267,334.22l-2.9,1.87v.08l.58.05.8.08.86.12,1,.18c.28.06.6.13,1,.24s.68.22,1,.35a7,7,0,0,1,.91.45,6.75,6.75,0,0,1,.88.59,3.51,3.51,0,0,1,1.45,2.77,4.66,4.66,0,0,1-.62,2.19,13.29,13.29,0,0,1-5.49,5.07,25.08,25.08,0,0,1-8.74,3,13.79,13.79,0,0,1-2.32.19h-.24a6.12,6.12,0,0,1-1.94-.32,3.87,3.87,0,0,1-1.24-.72,1.51,1.51,0,0,1-.51-1.15,3,3,0,0,1,.32-1.23,5.37,5.37,0,0,1,1.19-1.45,12.57,12.57,0,0,1,2.15-1.54l1.27-.72.86-.45.48-.24a.63.63,0,0,0,.28-.2.46.46,0,0,0,.1-.26q.81-4.11,1.95-7.9a58.86,58.86,0,0,1,2.06-5.9A.41.41,0,0,0,262.23,329.16Zm-4.38,15.56a10.2,10.2,0,0,0-1.63.79,15.93,15.93,0,0,0-2,1.35c-1.15.92-1.73,1.68-1.73,2.27a.93.93,0,0,0,.54.8,4.46,4.46,0,0,0,2.32.48,16.79,16.79,0,0,0,3-.32,24.65,24.65,0,0,0,3.5-.91,21.52,21.52,0,0,0,3.28-1.39,20.86,20.86,0,0,0,2.77-1.65,12.75,12.75,0,0,0,2.09-1.79,7.33,7.33,0,0,0,1.31-1.82,3.62,3.62,0,0,0,.35-1.49v-.24a2.45,2.45,0,0,0-.7-1.47,5.65,5.65,0,0,0-1.94-1.24,10.11,10.11,0,0,0-2.24-.65c-.68-.11-1.37-.2-2.08-.28a11.85,11.85,0,0,1-1.31-.2.56.56,0,0,1-.48-.57,1.28,1.28,0,0,1,.56-.88c.63-.48,1.56-1.1,2.8-1.88s2.27-1.45,3.08-2a6.05,6.05,0,0,0,1.63-1.52.67.67,0,0,0,.14-.37c0-.4-.47-.7-1.4-.91a12,12,0,0,0-2.53-.27,21.5,21.5,0,0,0-3.58.35.47.47,0,0,0-.35.29c-.85,2.14-1.57,4.2-2.18,6.19s-1.24,4.54-1.89,7.64c.2-.06.57-.18,1.11-.39l2.69-1c1.26-.45,2.71-.95,4.36-1.48a2.67,2.67,0,0,1,.48-.08.46.46,0,0,1,.49.35.43.43,0,0,1,0,.16c0,.23-.17.41-.53.53l-1.86.62c-2.12.69-3.58,1.2-4.39,1.52l-2.34.85h0a.5.5,0,0,0-.29.36c-.06.19-.16.81-.32,1.88-.09.53-.17,1-.22,1.31a5.11,5.11,0,0,1-.08.72,2.1,2.1,0,0,0-.07.57,2,2,0,0,1-.06.35.33.33,0,0,1-.17.23.49.49,0,0,1-.27.05c-.26,0-.4-.2-.4-.53S257.47,347.2,257.85,344.72Z" transform="translate(-194.05 -298.98)"/><path class="cls-1" d="M279.19,338.72a.44.44,0,0,1,.57-.19l.06,0a.41.41,0,0,1,.22.53.36.36,0,0,1-.07.1c-.49.76-.89,1.38-1.21,1.84a3,3,0,0,1-1.24,1.12,2,2,0,0,1-1,.29,1.57,1.57,0,0,1-1.19-.53,3.53,3.53,0,0,1-.83-2.59,13.39,13.39,0,0,1,.48-3.2q1.2-4.53,2.1-7.29a.53.53,0,0,1,.51-.35.5.5,0,0,1,.51.51.28.28,0,0,1,0,.13c-.06.18-.32,1.08-.78,2.69s-.84,3-1.12,4.07c-.22.84-.39,1.68-.53,2.53a7.86,7.86,0,0,0-.05.83,9.45,9.45,0,0,0,.08,1.07,1.56,1.56,0,0,0,.38.88.75.75,0,0,0,.48.19.88.88,0,0,0,.33-.06.84.84,0,0,0,.31-.12l.3-.22.29-.24a2.14,2.14,0,0,0,.28-.32c.11-.15.19-.25.24-.33l.26-.37.23-.35L279,339Z" transform="translate(-194.05 -298.98)"/><path class="cls-1" d="M286,338.29a.42.42,0,0,1,.58,0l0,.06a.38.38,0,0,1,0,.54.23.23,0,0,1-.1.07,6.08,6.08,0,0,1-1.68,1,7.44,7.44,0,0,1-1.82.29,3.52,3.52,0,0,1-1.08,1.39,2,2,0,0,1-1.21.48h0a1.65,1.65,0,0,1-1-.34,1.78,1.78,0,0,1-.62-1v-.64a2.68,2.68,0,0,1,.16-1.2.81.81,0,0,0-.06-.57,3.54,3.54,0,0,1-.21-.79v-.16a2.51,2.51,0,0,1,.27-.91,1.64,1.64,0,0,1,1.5-1h.14a.62.62,0,0,0,.51-.22c.3-.35.56-.53.78-.53a.34.34,0,0,1,.27.13.44.44,0,0,1,.09.11.13.13,0,0,1,0,.12v.12a.13.13,0,0,1,0,.12l-.05.11-.08.12-.08.1a.29.29,0,0,1-.1.12l-.1.12a3.62,3.62,0,0,1,1.23,2.78,4.68,4.68,0,0,1,0,.53A4.5,4.5,0,0,0,286,338.29Zm-5.81,1.25a3.88,3.88,0,0,0-.11.75.89.89,0,0,0,.21.67.68.68,0,0,0,.46.19,1,1,0,0,0,.51-.14,1.29,1.29,0,0,0,.7-.83l-.89-.25Zm2.09-.26a1.77,1.77,0,0,0,.09-.56,2.35,2.35,0,0,0-.17-.86,1.75,1.75,0,0,0-.75-1,7.3,7.3,0,0,0-.94,1.68A3.56,3.56,0,0,0,282.25,339.28Z" transform="translate(-194.05 -298.98)"/><path class="cls-1" d="M293.18,338.64a.43.43,0,0,1,.24-.08.51.51,0,0,1,.34.13.44.44,0,0,1,.15.35.35.35,0,0,1-.1.28,1.17,1.17,0,0,1-.35.28l-.56.32a10.11,10.11,0,0,0-.9.53c-.4.25-.79.52-1.19.8a1.08,1.08,0,0,0-.4.59,29.33,29.33,0,0,1-2.1,6.19,2.77,2.77,0,0,1-1.8,1.68.73.73,0,0,1-.3.06,1,1,0,0,1-.94-.78,2.19,2.19,0,0,1-.14-.77,7.46,7.46,0,0,1,1.51-3.74,21.11,21.11,0,0,1,1.37-1.75l1-1.08a1.32,1.32,0,0,0,.42-.66c0-.11.16-.64.43-1.58h-.05c-.61.73-1.18,1.38-1.7,2a2.48,2.48,0,0,1-1.64,1h-.13c-.49-.07-.78-.43-.87-1.09v-.45a5.56,5.56,0,0,1,.56-2.22,8,8,0,0,1,1.89-2.48,3.14,3.14,0,0,1,1.93-.86h.3a1.49,1.49,0,0,1,.91.49,1.38,1.38,0,0,1,.38,1v.06a10.84,10.84,0,0,1-.13,1.29c-.07.46-.15.87-.23,1.23q-.07.31-.12.63c.36-.23.72-.44,1.09-.64Zm-4.9,6.19.49-1.47h-.06a18.16,18.16,0,0,0-1.64,2.17,7.32,7.32,0,0,0-.63,1.17,5.17,5.17,0,0,0-.36,1.26,1.13,1.13,0,0,0,0,.26.72.72,0,0,0,.21.56.74.74,0,0,0,.49-.42,8.56,8.56,0,0,0,.71-1.25C287.56,346.83,287.85,346,288.28,344.83Zm2.21-7.8V337a.71.71,0,0,0-.27-.63.7.7,0,0,0-.67-.07,3.83,3.83,0,0,0-1.68,1.35,7,7,0,0,0-1.17,2.15,3.64,3.64,0,0,0-.22,1.07,1.18,1.18,0,0,0,.11.5,2.88,2.88,0,0,0,.89-.65,8.72,8.72,0,0,0,.92-1c.26-.32.56-.72.89-1.18s.52-.72.55-.75Z" transform="translate(-194.05 -298.98)"/><g id="nothingness"><path class="cls-2" d="M225.78,356.82a1,1,0,0,0-.83.39,1.88,1.88,0,0,0-.31,1.17V360s0,.07,0,.07h-.44s-.07,0-.07-.07v-3.48c0-.05,0-.07.07-.07h.27s.07,0,.07.05l.1.64a1.41,1.41,0,0,1,.51-.6,1.74,1.74,0,0,1,.8-.19,1.7,1.7,0,0,1,.67.13,1.37,1.37,0,0,1,.78.83,1.51,1.51,0,0,1,.11.59V360s0,.07-.08.07H227c-.05,0-.08,0-.08-.07v-2.1a1.06,1.06,0,0,0-.3-.8A1.15,1.15,0,0,0,225.78,356.82Z" transform="translate(-194.05 -298.98)"/><path class="cls-2" d="M228.13,358.27a2.53,2.53,0,0,1,.12-.77,2.14,2.14,0,0,1,.35-.6,1.74,1.74,0,0,1,.54-.39,2,2,0,0,1,1.39,0,1.53,1.53,0,0,1,.54.39,1.64,1.64,0,0,1,.34.6,2,2,0,0,1,.12.77,2.11,2.11,0,0,1-.12.79,1.49,1.49,0,0,1-.34.6,1.32,1.32,0,0,1-.54.39,1.77,1.77,0,0,1-1.39,0,1.47,1.47,0,0,1-.54-.39,1.89,1.89,0,0,1-.35-.6A2.61,2.61,0,0,1,228.13,358.27Zm.55,0a2.33,2.33,0,0,0,.08.59,1.42,1.42,0,0,0,.23.46,1,1,0,0,0,.36.31,1,1,0,0,0,.48.1.83.83,0,0,0,.47-.1.86.86,0,0,0,.37-.31,1.11,1.11,0,0,0,.23-.46,1.69,1.69,0,0,0,.09-.59,1.49,1.49,0,0,0-.09-.59,1.2,1.2,0,0,0-.23-.45,1.07,1.07,0,0,0-.84-.39,1.33,1.33,0,0,0-.48.1,1.12,1.12,0,0,0-.36.29,1.6,1.6,0,0,0-.23.45A2,2,0,0,0,228.68,358.27Z" transform="translate(-194.05 -298.98)"/><path class="cls-2" d="M233,355.3v1.18h1.14s.07,0,.07,0v.35a.07.07,0,0,1-.07.07H233v2.22a.76.76,0,0,0,0,.27.5.5,0,0,0,.34.28h.21a.54.54,0,0,0,.31-.06l.25-.12a.06.06,0,0,1,.07,0h0l.21.27v.1l-.3.15a1.11,1.11,0,0,1-.54.1,1.45,1.45,0,0,1-.54-.08.9.9,0,0,1-.36-.22.79.79,0,0,1-.2-.33,1.84,1.84,0,0,1-.05-.41V356.9h-.58a.07.07,0,0,1-.07-.07h0v-.26a.07.07,0,0,1,.07-.07l.58-.07.07-1.19c0-.05,0-.07.07-.07h.33a.09.09,0,0,1,.1,0,.07.07,0,0,1,0,.1Z" transform="translate(-194.05 -298.98)"/><path class="cls-2" d="M236.79,356.85a1.56,1.56,0,0,0-.42.08.91.91,0,0,0-.37.24,1.59,1.59,0,0,0-.26.43,2.37,2.37,0,0,0-.09.65V360s0,.07-.08.07h-.4s-.07,0-.07-.07v-5.3a.08.08,0,0,1,.05-.07h.42s.08,0,.08.06h0v2.39a1.23,1.23,0,0,1,.52-.54,1.63,1.63,0,0,1,.75-.18,1.89,1.89,0,0,1,.67.12,1.67,1.67,0,0,1,.48.34,1.22,1.22,0,0,1,.3.48,1.48,1.48,0,0,1,.1.58V360s0,.07-.07.07H238c-.05,0-.08,0-.08-.07v-2.1a1,1,0,0,0-.07-.41,1.08,1.08,0,0,0-.23-.34,1.13,1.13,0,0,0-.36-.24A1.4,1.4,0,0,0,236.79,356.85Z" transform="translate(-194.05 -298.98)"/><path class="cls-2" d="M239.34,355a.33.33,0,0,1,.09-.23.31.31,0,0,1,.22-.09.32.32,0,0,1,.23.09.39.39,0,0,1,0,.47.28.28,0,0,1-.23.09.25.25,0,0,1-.22-.09A.34.34,0,0,1,239.34,355Zm.15,5.11c-.05,0-.07,0-.07-.07v-3.54c0-.05,0-.07.07-.07h.34s.07,0,.07.07V360s0,.07-.07.07Z" transform="translate(-194.05 -298.98)"/><path class="cls-2" d="M242.56,356.82a1,1,0,0,0-.83.39,1.88,1.88,0,0,0-.31,1.17V360s0,.07-.07.07h-.41a.07.07,0,0,1-.07-.07v-3.48c0-.05,0-.07.07-.07h.27s.07,0,.07.05l.1.64a1.41,1.41,0,0,1,.51-.6,1.75,1.75,0,0,1,.81-.19,1.62,1.62,0,0,1,.66.13,1.36,1.36,0,0,1,.78.83,1.51,1.51,0,0,1,.11.59V360s0,.07-.08.07h-.4c-.05,0-.07,0-.07-.07v-2.1a1.07,1.07,0,0,0-.31-.8A1.15,1.15,0,0,0,242.56,356.82Z" transform="translate(-194.05 -298.98)"/><path class="cls-2" d="M245.19,361.49a.08.08,0,0,1,0-.07l.19-.25c0-.05.08-.05.12,0a.51.51,0,0,0,.13.09.67.67,0,0,0,.21.1.86.86,0,0,0,.3.09,1.27,1.27,0,0,0,.39,0,1.3,1.3,0,0,0,.62-.12.72.72,0,0,0,.34-.28.63.63,0,0,0,.15-.32,1.22,1.22,0,0,0,0-.27v-.88a1.18,1.18,0,0,1-.49.42,1.26,1.26,0,0,1-.66.15,1.56,1.56,0,0,1-.7-.13,1.41,1.41,0,0,1-.53-.38,1.85,1.85,0,0,1-.35-.59,2.43,2.43,0,0,1-.12-.77,2.71,2.71,0,0,1,.12-.79,2,2,0,0,1,.35-.59,1.66,1.66,0,0,1,.53-.38,1.86,1.86,0,0,1,.7-.14,1.41,1.41,0,0,1,1.18.62l.05-.49a.09.09,0,0,1,.07-.06h.3s.07,0,.07.07v4a1.44,1.44,0,0,1-.11.59,1.27,1.27,0,0,1-.32.47,1.53,1.53,0,0,1-.52.31,1.83,1.83,0,0,1-.7.1,1.91,1.91,0,0,1-.71-.1,1.32,1.32,0,0,1-.43-.21A1.66,1.66,0,0,1,245.19,361.49Zm1.34-1.76a1,1,0,0,0,.79-.34,1.43,1.43,0,0,0,.35-.91v-.37a1.52,1.52,0,0,0-.35-.92,1,1,0,0,0-.79-.35,1.15,1.15,0,0,0-.48.1,1.23,1.23,0,0,0-.37.31,1.65,1.65,0,0,0-.23.46,2.39,2.39,0,0,0-.08.59,2,2,0,0,0,.08.59,1.37,1.37,0,0,0,.23.45,1.13,1.13,0,0,0,.37.29,1,1,0,0,0,.51.1Z" transform="translate(-194.05 -298.98)"/><path class="cls-2" d="M250.75,356.82a1,1,0,0,0-.83.39,1.88,1.88,0,0,0-.31,1.17V360s0,.07-.07.07h-.41a.06.06,0,0,1-.07,0v-3.51a.08.08,0,0,1,.05-.07h.29s.07,0,.07.05l.1.64a1.32,1.32,0,0,1,.52-.6,1.74,1.74,0,0,1,.8-.19,1.62,1.62,0,0,1,.66.13,1.44,1.44,0,0,1,.49.34,1.47,1.47,0,0,1,.3.49,1.7,1.7,0,0,1,.1.59V360s0,.07,0,.07H252a.07.07,0,0,1-.07-.07v-2.1a1.06,1.06,0,0,0-.3-.8A1.16,1.16,0,0,0,250.75,356.82Z" transform="translate(-194.05 -298.98)"/><path class="cls-2" d="M256.66,358.43a.07.07,0,0,1-.07.07h-2.72a1.39,1.39,0,0,0,.15.5,1.36,1.36,0,0,0,.27.39,1.19,1.19,0,0,0,.83.34,1.24,1.24,0,0,0,.47-.06,1.48,1.48,0,0,0,.31-.15.91.91,0,0,0,.24-.2l.23.27v.1a.83.83,0,0,1-.21.16,1,1,0,0,1-.27.17,1.06,1.06,0,0,1-.34.12,1.48,1.48,0,0,1-.42,0,1.65,1.65,0,0,1-.72-.14,1.7,1.7,0,0,1-1-1,2.35,2.35,0,0,1-.14-.79,2.53,2.53,0,0,1,.12-.77,2,2,0,0,1,.35-.6,1.55,1.55,0,0,1,.53-.39,1.89,1.89,0,0,1,.7-.13,2.08,2.08,0,0,1,.66.11,1.32,1.32,0,0,1,.53.36,1.59,1.59,0,0,1,.36.63A2.69,2.69,0,0,1,256.66,358.43Zm-.58-.4a1.39,1.39,0,0,0-.1-.53.92.92,0,0,0-.23-.37.87.87,0,0,0-.34-.22,1.14,1.14,0,0,0-.41-.07,1,1,0,0,0-.77.32,1.5,1.5,0,0,0-.36.87Z" transform="translate(-194.05 -298.98)"/><path class="cls-2" d="M259.78,356.65h0a.06.06,0,0,1,0,.06l-.16.28h-.11l-.32-.13a1.93,1.93,0,0,0-.49-.09h-.28l-.28.08a.68.68,0,0,0-.21.17.38.38,0,0,0-.09.25.35.35,0,0,0,.11.27,1.06,1.06,0,0,0,.27.18l.3.1.21.06.31.11a2.25,2.25,0,0,1,.41.21,1.55,1.55,0,0,1,.37.35.79.79,0,0,1,.16.51.77.77,0,0,1-.11.45.92.92,0,0,1-.32.33,1.24,1.24,0,0,1-.49.2,2.18,2.18,0,0,1-.63.06,2,2,0,0,1-.71-.14,2.17,2.17,0,0,1-.45-.24s0-.06,0-.1l.2-.28s.06,0,.1,0l.15.07a.48.48,0,0,0,.21.09.87.87,0,0,0,.26.08.71.71,0,0,0,.29,0,1.09,1.09,0,0,0,.36,0,.53.53,0,0,0,.3-.09.48.48,0,0,0,.21-.19.4.4,0,0,0,.08-.28.35.35,0,0,0-.1-.27,1.89,1.89,0,0,0-.27-.2l-.35-.16-.36-.12a2.75,2.75,0,0,1-.36-.15,1.08,1.08,0,0,1-.34-.2,1,1,0,0,1-.24-.29.79.79,0,0,1-.09-.38.81.81,0,0,1,.12-.42,1.11,1.11,0,0,1,.31-.3,2.53,2.53,0,0,1,.45-.19,2.31,2.31,0,0,1,.52-.06,2.16,2.16,0,0,1,.62.09Z" transform="translate(-194.05 -298.98)"/><path class="cls-2" d="M263.09,356.65h0a.06.06,0,0,1,0,.06l-.16.28a.08.08,0,0,1-.1,0h0l-.33-.13a1.93,1.93,0,0,0-.49-.09h-.27l-.28.08a.72.72,0,0,0-.22.17.38.38,0,0,0-.09.25.35.35,0,0,0,.11.27,1.06,1.06,0,0,0,.27.18l.31.1.2.06.31.11a2.25,2.25,0,0,1,.41.21,1.55,1.55,0,0,1,.37.35.79.79,0,0,1,.16.51.77.77,0,0,1-.11.45.92.92,0,0,1-.32.33,1.24,1.24,0,0,1-.49.2,2.14,2.14,0,0,1-.62.06A1.81,1.81,0,0,1,261,360a2.17,2.17,0,0,1-.45-.24.08.08,0,0,1,0-.09h0l.2-.28s.06,0,.1,0l.15.07a.48.48,0,0,0,.21.09l.26.08a.71.71,0,0,0,.29,0,1.09,1.09,0,0,0,.36,0,.53.53,0,0,0,.3-.09.48.48,0,0,0,.21-.19.4.4,0,0,0,.08-.28.35.35,0,0,0-.1-.27,1.89,1.89,0,0,0-.27-.2l-.35-.16-.36-.12a2.75,2.75,0,0,1-.36-.15.94.94,0,0,1-.33-.2,1.16,1.16,0,0,1-.25-.29.79.79,0,0,1-.09-.38.81.81,0,0,1,.12-.42,1.11,1.11,0,0,1,.31-.3,2.53,2.53,0,0,1,.45-.19,2.31,2.31,0,0,1,.52-.06,2.16,2.16,0,0,1,.62.09A4.73,4.73,0,0,1,263.09,356.65Z" transform="translate(-194.05 -298.98)"/></g><path class="cls-2" d="M244.78,307.61a8,8,0,0,1,.09,1.38,19.22,19.22,0,0,0,.51,4c.19.13.44,0,.56-.23a1.57,1.57,0,0,0,.15-.8,19.84,19.84,0,0,0-.34-2.42c-.07-.67-.05-1.36-.13-2-.06-.46-.2-1-.53-1.14-.17-.09-.72-.11-.76.22C244.31,306.75,244.73,307.39,244.78,307.61Z" transform="translate(-194.05 -298.98)"/><path class="cls-2" d="M246.61,311.92a1.26,1.26,0,0,0-.15.8c.13.35.52.15.66-.09a1.69,1.69,0,0,0,.21-.62,23.21,23.21,0,0,0,.44-4,2.56,2.56,0,0,0-.27-1.58.92.92,0,0,0-1.21-.29c-.1.05.35.59.36.62a3.38,3.38,0,0,1,.19,1.17v2.71a2.72,2.72,0,0,1-.06.81A2.64,2.64,0,0,1,246.61,311.92Z" transform="translate(-194.05 -298.98)"/><path class="cls-2" d="M248.48,309.76a17.86,17.86,0,0,0-.67,2.78.54.54,0,0,0,0,.18.31.31,0,0,0,.14.12c.21.09.47.18.64,0a.73.73,0,0,0,.15-.29,17,17,0,0,0,.72-4l.12-1.16a1.75,1.75,0,0,0,0-.56,1.35,1.35,0,0,0-.18-.33,1.1,1.1,0,0,0-1.17-.51A5.34,5.34,0,0,1,248.48,309.76Z" transform="translate(-194.05 -298.98)"/><path class="cls-2" d="M248.12,308.54a1.85,1.85,0,0,1,1.63.27,1.6,1.6,0,0,1,.44.83,6.51,6.51,0,0,1-1.71.11,30.76,30.76,0,0,0-5.63,1,2.21,2.21,0,0,1-2.07-.83c.34-.25,1.1-.17,1.52-.26s1-.24,1.51-.33C245.24,309,246.68,308.77,248.12,308.54Z" transform="translate(-194.05 -298.98)"/><path class="cls-2" d="M243.05,313.25a1.17,1.17,0,0,1,.45-.09,18.89,18.89,0,0,0,2.79-.67,3.61,3.61,0,0,1,2.79.24.45.45,0,0,1,.22.23.43.43,0,0,1-.26.52.93.93,0,0,1-.54-.1,3.55,3.55,0,0,0-1.77.08l-2.92.65a1.55,1.55,0,0,1-.61.06C242.56,314.09,242.4,313.59,243.05,313.25Z" transform="translate(-194.05 -298.98)"/><path class="cls-2" d="M241.56,316.26a2.46,2.46,0,0,1,.16.69,2.69,2.69,0,0,1-.62,1.68c0,.06-.09.12-.15.13a.11.11,0,0,1-.11,0,1.08,1.08,0,0,1-.45-1,3.24,3.24,0,0,1,.32-1.17c.07-.17.31-1,.46-1S241.46,316,241.56,316.26Z" transform="translate(-194.05 -298.98)"/><path class="cls-2" d="M243.32,316a4.55,4.55,0,0,0,.18,1.28,1.37,1.37,0,0,0,.24.5.35.35,0,0,0,.43.12.76.76,0,0,0,.27-.43,3.79,3.79,0,0,0,.17-1.06.79.79,0,0,0-.05-.4.72.72,0,0,0-.18-.25c-.3-.3-.68-.74-1.07-.73C243.29,315.37,243.32,315.71,243.32,316Z" transform="translate(-194.05 -298.98)"/><path class="cls-2" d="M245.87,316.29a2.33,2.33,0,0,0,.45.87,2,2,0,0,0,.25.37.26.26,0,0,0,.35.07h0a.63.63,0,0,0,.16-.44,3,3,0,0,0-.07-1.57,2.69,2.69,0,0,0-.19-.32c-.18-.26-.75-1.1-1-.71-.09.15,0,.53,0,.69A7.38,7.38,0,0,1,245.87,316.29Z" transform="translate(-194.05 -298.98)"/><path class="cls-2" d="M248.69,316a4.26,4.26,0,0,0,.17.54,1,1,0,0,0,.86.66.33.33,0,0,0,.3-.15.35.35,0,0,0,.07-.2,1.68,1.68,0,0,0-.17-1.14,2.7,2.7,0,0,0-.29-.4l-.34-.41a1.17,1.17,0,0,0-.16-.15.75.75,0,0,0-.18-.08c-.23-.08-.7-.39-.89-.18A10.47,10.47,0,0,1,248.69,316Z" transform="translate(-194.05 -298.98)"/><path class="cls-2" d="M242.24,307.19a6.13,6.13,0,0,0,1.46-1.74c.06-.1.13-.22.22-.23a.48.48,0,0,1,.17,0,2.13,2.13,0,0,0,1.49-.1l1.48-.45a1.23,1.23,0,0,1,.46-.07l.32.11a.64.64,0,0,0,.8-.45.65.65,0,0,0,0-.24.71.71,0,0,0-.69-.6,4.07,4.07,0,0,0-1.68.34l-1.51.56a.75.75,0,0,1-.47.06.42.42,0,0,1-.27-.45l.12-.33a.65.65,0,0,0-.46-.71c-.56-.17-.76-.36-.9.43-.12.63-.23,1.26-.34,1.89s-.26,1.21-.42,1.82-.16.36.2.41.42.16.54.82.29,1.52.44,2.28c.11.56.21,1.12.27,1.7s.09,1,.4,1.13.6-.15.71-.53a2.93,2.93,0,0,0,0-1.18l-.12-.89a18,18,0,0,0-.63-3.24.92.92,0,0,0-.23-.45.72.72,0,0,0-.48-.14h-.79c-.14,0-.32,0-.35.22a.9.9,0,0,1,.5.24" transform="translate(-194.05 -298.98)"/><path class="cls-4" d="M250.93,300.63c-1.46-1.67-4.57-.7-6.53-1-1.16-.17-2.35-.38-3.35.45s-1.1,2.15-1.19,3.37l-.71,9.34-.23,3.08a11.59,11.59,0,0,0,.06,3,3.66,3.66,0,0,0,1.59,2.46,5.33,5.33,0,0,0,2.77.52h3.86a5.2,5.2,0,0,0,3.34-.72c1.07-.83,1.33-2.32,1.48-3.67a46.85,46.85,0,0,0-.21-14.76A4.44,4.44,0,0,0,250.93,300.63Z" transform="translate(-194.05 -298.98)"/></g></svg>